<svg width="18" height="18" viewBox="0 0 18 18" fill="none" xmlns="http://www.w3.org/2000/svg">
<mask id="mask0_421_575" style="mask-type:alpha" maskUnits="userSpaceOnUse" x="0" y="0" width="18" height="18">
<rect width="18" height="18" fill="white"/>
</mask>
<g mask="url(#mask0_421_575)">
<path d="M9 17V15.4762H14.4444V14.7143H11.3333V8.61905H14.4444V7.85714C14.4444 6.38413 13.913 5.12698 12.85 4.08571C11.787 3.04444 10.5037 2.52381 9 2.52381C7.4963 2.52381 6.21296 3.04444 5.15 4.08571C4.08704 5.12698 3.55556 6.38413 3.55556 7.85714V8.61905H6.66667V14.7143H3.55556C3.12778 14.7143 2.76157 14.5651 2.45694 14.2667C2.15231 13.9683 2 13.6095 2 13.1905V7.85714C2 6.91746 2.18472 6.03175 2.55417 5.2C2.92361 4.36825 3.42593 3.64127 4.06111 3.01905C4.6963 2.39683 5.43843 1.90476 6.2875 1.54286C7.13657 1.18095 8.04074 1 9 1C9.95926 1 10.8634 1.18095 11.7125 1.54286C12.5616 1.90476 13.3037 2.39683 13.9389 3.01905C14.5741 3.64127 15.0764 4.36825 15.4458 5.2C15.8153 6.03175 16 6.91746 16 7.85714V15.4762C16 15.8952 15.8477 16.254 15.5431 16.5524C15.2384 16.8508 14.8722 17 14.4444 17H9ZM3.55556 13.1905H5.11111V10.1429H3.55556V13.1905ZM12.8889 13.1905H14.4444V10.1429H12.8889V13.1905Z" fill="white"/>
</g>
</svg>
