<svg width="150" height="38" viewBox="0 0 150 38" fill="none" xmlns="http://www.w3.org/2000/svg">
    <g clip-path="url(#clip0_601_472)">
        <path d="M32.4092 0H0V32.6127H32.4092V0Z" fill="#0AACB1"/>
        <path fillRule="evenodd" clipRule="evenodd" d="M26.4819 6.54199V26.0711L9.08224 6.54199H13.5756L23.5182 17.8939V6.54199H26.4819ZM5.92737 26.0711V6.54199L23.327 26.0711H18.8337L8.89104 14.7192V26.0711H5.92737Z" fill="white"/>
        <path d="M87.5717 29.1495V4.13682H93.4991V29.2457H87.5717V29.1495ZM65.1052 29.1495V4.13682H71.5105C73.5182 4.13682 75.1434 4.23302 76.2906 4.52163C77.4379 4.81024 78.3939 5.29125 79.2543 5.86846C80.2103 6.54188 80.8796 7.4077 81.4532 8.36973C81.9312 9.33176 82.218 10.39 82.218 11.4482C82.218 12.9875 81.8356 14.4305 80.9752 15.5849C80.2103 16.7394 79.0631 17.7014 77.5335 18.3748L85.0861 29.1495H78.3939L71.7017 19.3368H70.8413V29.1495H65.1052ZM71.7973 8.65834H70.8413V15.5849H72.0841C73.6138 15.5849 74.761 15.2963 75.5258 14.6229C76.2906 14.0457 76.6731 13.1799 76.6731 12.0254C76.6731 10.871 76.2906 10.0052 75.5258 9.42796C74.8566 8.94695 73.6138 8.65834 71.7973 8.65834ZM37.8585 29.1495V3.271H38.4321L53.9197 17.8938V4.13682H59.369V30.1115H58.891L43.3079 15.4887V29.1495H37.8585Z" fill="#1A1A18"/>
        <path d="M147.323 17.4128C147.323 15.7774 146.845 14.5268 145.889 13.6609C144.933 12.7951 143.595 12.3141 141.778 12.3141C140.057 12.3141 138.623 12.7951 137.763 13.6609C136.807 14.5268 136.329 15.8736 136.329 17.4128V18.6635H147.228V17.4128H147.323ZM134.034 17.7014C134.034 15.2964 134.704 13.4685 136.042 12.1217C137.381 10.7749 139.293 10.1014 141.874 10.1014C144.455 10.1014 146.367 10.7749 147.706 12.1217C149.044 13.4685 149.713 15.2002 149.713 17.509V19.4331C149.713 20.1065 149.331 20.3951 148.662 20.3951H136.425V22.4154C136.425 23.9546 136.903 25.109 137.763 25.9749C138.623 26.8407 139.962 27.2255 141.683 27.2255C144.264 27.2255 146.176 26.2635 147.228 24.2432C147.514 23.8584 147.897 23.7622 148.279 23.9546L149.044 24.3394C149.522 24.5318 149.618 24.9166 149.331 25.3976C147.897 27.9951 145.411 29.2457 141.778 29.2457C139.197 29.2457 137.285 28.5723 136.042 27.3217C134.799 26.0711 134.13 24.2432 134.13 22.0306V17.7014H134.034ZM131.453 2.69385C131.74 2.69385 131.836 2.69385 131.931 2.79005C132.027 2.88625 132.027 3.07866 132.027 3.27106V4.23309C132.027 4.7141 131.836 4.90651 131.358 4.90651C129.446 4.90651 128.107 5.29132 127.342 5.96473C126.577 6.63815 126.291 7.98499 126.291 9.81283V10.6787H131.453C131.74 10.6787 131.836 10.6787 131.931 10.7749C132.027 10.8711 132.027 11.0635 132.027 11.2559V12.2179C132.027 12.6027 131.836 12.8913 131.358 12.8913H126.195V28.3799C126.195 28.5723 126.195 28.7647 126.099 28.8609C126.004 28.9571 125.813 28.9571 125.621 28.9571H124.57C124.187 28.9571 123.901 28.7647 123.901 28.2837V12.9875H120.746C120.363 12.9875 120.077 12.7951 120.077 12.3141V11.3521C120.077 11.1597 120.077 10.9673 120.172 10.8711C120.268 10.7749 120.459 10.7749 120.65 10.7749H123.805V9.90904C123.805 7.40777 124.379 5.57992 125.43 4.42549C126.482 3.27106 128.394 2.79005 130.88 2.69385H131.453ZM116.922 10.7749C117.304 10.7749 117.591 10.9673 117.591 11.4483V28.4761C117.591 28.8609 117.4 29.1495 116.922 29.1495H115.774C115.392 29.1495 115.105 28.9571 115.105 28.4761V11.3521C115.105 10.9673 115.296 10.6787 115.774 10.6787H116.922V10.7749ZM116.444 4.23309C116.922 4.23309 117.304 4.32929 117.495 4.5217C117.686 4.7141 117.782 5.09891 117.782 5.57992V5.77233C117.782 6.25334 117.686 6.63815 117.495 6.83056C117.304 7.02296 116.922 7.11916 116.444 7.11916H116.252C115.774 7.11916 115.392 7.02296 115.201 6.83056C115.01 6.63815 114.914 6.25334 114.914 5.77233V5.48372C114.914 5.00271 115.01 4.6179 115.201 4.42549C115.392 4.23309 115.774 4.13689 116.252 4.13689H116.444V4.23309ZM99.044 3.75208C99.3308 3.75208 99.522 3.84828 99.6176 3.94448C99.7132 4.04068 99.7132 4.23309 99.7132 4.5217V26.6483H111.664C112.142 26.6483 112.333 26.8407 112.333 27.3217V28.2837C112.333 28.7647 112.142 28.9571 111.664 28.9571H97.8012C97.5144 28.9571 97.3232 28.8609 97.2276 28.7647C97.132 28.6685 97.0364 28.4761 97.0364 28.1875V4.5217C97.0364 4.23309 97.132 4.04068 97.2276 3.94448C97.3232 3.84828 97.5144 3.75208 97.8012 3.75208H99.044Z" fill="#1A1A18"/>
        <path d="M150 32.9011L149.809 34.0555H149.713C149.713 33.7669 149.618 33.4783 149.426 33.3821C149.235 33.1897 149.044 33.0935 148.853 33.0935C148.757 33.0935 148.662 33.0935 148.566 33.1897C148.47 33.2859 148.47 33.3821 148.47 33.4783C148.47 33.5745 148.47 33.6707 148.566 33.6707C148.566 33.7669 148.662 33.8631 148.757 33.9593C149.14 34.3441 149.426 34.7289 149.522 34.8251C149.618 35.0175 149.618 35.1137 149.618 35.3062C149.618 35.4986 149.522 35.691 149.426 35.8834C149.331 36.0758 149.14 36.172 148.948 36.2682C148.757 36.3644 148.566 36.4606 148.375 36.4606C148.184 36.4606 148.088 36.4606 147.801 36.3644C147.706 36.3644 147.514 36.2682 147.514 36.2682C147.419 36.2682 147.419 36.2682 147.323 36.2682L147.228 36.3644H147.132L147.323 35.1137H147.419C147.514 35.4024 147.61 35.5948 147.706 35.7872C147.801 35.8834 147.897 35.9796 147.992 36.0758C148.088 36.172 148.279 36.172 148.375 36.172C148.47 36.172 148.662 36.172 148.757 36.0758C148.853 35.9796 148.853 35.8834 148.853 35.7872C148.853 35.691 148.853 35.5948 148.757 35.4024C148.662 35.3062 148.566 35.1137 148.375 34.9213C148.088 34.6327 147.897 34.3441 147.801 34.1517C147.706 34.0555 147.706 33.8631 147.706 33.7669C147.706 33.4783 147.801 33.2859 147.992 33.0935C148.184 32.9011 148.47 32.8049 148.853 32.8049C149.044 32.8049 149.235 32.8049 149.426 32.9011C149.522 32.9011 149.618 32.9011 149.713 32.9011C149.809 32.9011 149.904 32.9011 149.904 32.8049H150V32.9011ZM146.367 33.4783L146.272 33.2859C146.654 33.0935 146.941 32.9011 146.941 32.8049C147.036 32.7087 147.036 32.6125 147.036 32.5163C147.036 32.4201 146.941 32.3239 146.845 32.2277C146.75 32.1315 146.654 32.0353 146.558 31.9391C146.558 31.8429 146.463 31.8429 146.463 31.6505C146.463 31.4581 146.558 31.3619 146.654 31.2656C146.75 31.1694 146.941 31.0732 147.132 31.0732C147.323 31.0732 147.419 31.1694 147.61 31.2656C147.706 31.3619 147.801 31.5543 147.801 31.7467C147.801 32.0353 147.706 32.3239 147.419 32.7087C147.228 33.0935 146.845 33.2859 146.367 33.4783ZM143.212 31.3618V31.2656H145.698L145.602 31.3618C145.411 31.3618 145.22 31.4581 145.124 31.5543C145.029 31.6505 144.933 31.8429 144.837 32.2277L143.881 35.4986C143.786 35.691 143.786 35.8834 143.786 35.9796C143.786 36.0758 143.786 36.172 143.881 36.172C143.977 36.2682 144.168 36.2682 144.359 36.2682V36.3644H141.874V36.2682C142.161 36.2682 142.352 36.172 142.447 36.0758C142.543 35.9796 142.639 35.7872 142.734 35.4024L143.69 32.1315C143.786 31.9391 143.786 31.7467 143.786 31.6505C143.786 31.5543 143.786 31.4581 143.69 31.4581C143.69 31.4581 143.499 31.3618 143.212 31.3618ZM139.293 33.6707C139.388 33.6707 139.484 33.6707 139.484 33.6707C139.866 33.6707 140.153 33.5745 140.344 33.2859C140.535 32.9973 140.727 32.7087 140.727 32.3239C140.727 32.0353 140.631 31.9391 140.535 31.7467C140.44 31.6505 140.249 31.5543 140.057 31.5543C139.962 31.5543 139.962 31.5543 139.866 31.5543L139.293 33.6707ZM139.197 33.8631L138.719 35.4024C138.623 35.5948 138.623 35.7872 138.623 35.8834C138.623 35.9796 138.623 36.0758 138.719 36.0758C138.815 36.172 138.91 36.172 139.197 36.172L139.101 36.2682H136.616V36.172C136.902 36.172 136.998 36.0758 137.189 35.9796C137.285 35.8834 137.381 35.691 137.476 35.3062L138.432 32.0353C138.528 31.8429 138.528 31.7467 138.528 31.5543C138.528 31.4581 138.528 31.3618 138.432 31.3618C138.337 31.2656 138.241 31.2656 137.954 31.2656V31.1694H140.057C140.631 31.1694 141.109 31.2656 141.3 31.4581C141.587 31.6505 141.683 31.9391 141.683 32.2277C141.683 32.6125 141.587 32.9011 141.3 33.1897C141.109 33.3821 140.822 33.4783 140.344 33.6707L140.822 35.21C140.918 35.5948 141.013 35.8834 141.109 35.9796C141.205 36.0758 141.396 36.0758 141.587 36.0758V36.172H139.962L139.197 33.6707H139.101C139.293 33.8631 139.293 33.8631 139.197 33.8631ZM134.226 31.2656L135.755 34.6327L136.424 32.1315C136.424 32.0353 136.52 31.8429 136.52 31.7467C136.52 31.6505 136.52 31.5543 136.424 31.4581C136.329 31.3619 136.233 31.3618 136.042 31.3618V31.2656H137.667V31.3618C137.476 31.3618 137.285 31.4581 137.189 31.5543C137.094 31.6505 136.903 31.8429 136.807 32.1315L135.564 36.3644H135.468L133.461 32.0353L132.505 35.4024C132.505 35.4986 132.409 35.5948 132.409 35.691C132.409 35.7872 132.409 35.9796 132.505 35.9796C132.6 36.0758 132.696 36.0758 132.887 36.0758V36.172H131.262V36.0758C131.358 36.0758 131.549 36.0758 131.549 36.0758C131.644 36.0758 131.74 35.9796 131.836 35.8834C131.931 35.7872 132.027 35.5948 132.122 35.4024L133.174 31.6505C133.078 31.4581 132.887 31.3618 132.792 31.3618C132.696 31.3618 132.6 31.2656 132.409 31.2656V31.1694H134.226V31.2656ZM128.394 32.9011L127.82 35.0175C128.298 33.9593 128.681 33.3821 128.872 33.0935C128.968 32.9973 129.159 32.9011 129.35 32.9011C129.446 32.9011 129.541 32.9011 129.637 32.9973C129.732 33.0935 129.732 33.1897 129.732 33.2859C129.732 33.5745 129.637 33.7669 129.541 33.8631C129.446 33.9593 129.35 34.0555 129.254 34.0555C129.159 34.0555 129.063 34.0555 129.063 33.9593C128.968 33.8631 128.968 33.7669 128.968 33.7669C128.968 33.7669 128.968 33.7669 128.872 33.7669H128.776C128.681 33.7669 128.681 33.8631 128.585 33.9593C128.49 34.0555 128.394 34.2479 128.298 34.5365C128.203 34.8251 128.107 35.0175 128.011 35.21C127.916 35.4024 127.82 35.7872 127.725 36.2682H126.769L127.342 33.7669C127.342 33.5745 127.438 33.4783 127.438 33.3821C127.438 33.2859 127.438 33.2859 127.438 33.1897L127.342 33.0935C127.342 33.0935 127.247 33.0935 127.055 33.0935V32.9973L128.203 32.7087H128.394V32.9011ZM125.048 33.0935C124.952 33.0935 124.761 33.0935 124.761 33.1897C124.57 33.3821 124.379 33.7669 124.187 34.3441C123.996 34.9213 123.901 35.4986 123.901 35.8834C123.901 35.9796 123.901 36.0758 123.996 36.172C124.092 36.2682 124.187 36.2682 124.283 36.2682C124.379 36.2682 124.474 36.2682 124.57 36.172C124.665 36.0758 124.857 35.8834 124.952 35.5948C125.143 35.3062 125.239 34.9213 125.335 34.5365C125.43 34.1517 125.526 33.7669 125.526 33.4783C125.526 33.3821 125.526 33.2859 125.43 33.1897C125.239 33.0935 125.143 33.0935 125.048 33.0935ZM125.239 32.9011C125.43 32.9011 125.621 32.9011 125.813 32.9973C126.004 33.0935 126.099 33.1897 126.195 33.3821C126.291 33.5745 126.291 33.7669 126.291 33.9593C126.291 34.3441 126.195 34.7289 125.908 35.21C125.717 35.5948 125.43 35.9796 125.048 36.172C124.665 36.3644 124.283 36.5568 123.901 36.5568C123.518 36.5568 123.327 36.4606 123.136 36.2682C122.945 36.0758 122.849 35.7872 122.849 35.4986C122.849 35.1138 122.945 34.8251 123.04 34.5365C123.136 34.2479 123.327 33.9593 123.614 33.7669C123.805 33.5745 124.092 33.3821 124.379 33.1897C124.665 32.9011 124.952 32.9011 125.239 32.9011ZM120.746 31.5543L120.172 33.4783C120.555 33.4783 120.841 33.4783 120.937 33.4783C121.128 33.4783 121.319 33.3821 121.415 33.2859C121.606 33.1897 121.702 32.9973 121.797 32.8049H121.989L121.415 34.8251H121.224C121.224 34.7289 121.224 34.6327 121.224 34.5365C121.224 34.3441 121.224 34.2479 121.128 34.1517C121.033 34.0555 120.937 33.9593 120.841 33.9593C120.746 33.9593 120.459 33.8631 119.981 33.8631L119.503 35.4986L119.407 35.7872C119.407 35.8834 119.407 35.8834 119.407 35.9796C119.407 36.0758 119.407 36.172 119.503 36.172C119.503 36.2682 119.598 36.2682 119.694 36.2682C119.79 36.2682 119.885 36.2682 120.076 36.2682V36.3644H117.591V36.2682C117.878 36.2682 117.973 36.2682 118.164 36.172C118.26 36.0758 118.356 35.8834 118.451 35.5948L119.407 32.4201C119.503 32.1315 119.598 31.8429 119.598 31.7467C119.598 31.6505 119.598 31.5543 119.503 31.5543C119.407 31.4581 119.312 31.4581 119.025 31.4581V31.3618H123.231L122.849 32.7087H122.753C122.753 32.4201 122.658 32.2277 122.658 32.0353C122.562 31.9391 122.467 31.7467 122.275 31.7467C122.084 31.6505 121.797 31.6505 121.511 31.6505H120.746V31.5543ZM115.679 31.9391L115.392 32.9973H115.87L115.774 33.4783H115.296L114.627 35.691C114.627 35.7872 114.532 35.8834 114.532 35.9796V36.0758C114.532 36.0758 114.532 36.0758 114.627 36.0758C114.627 36.0758 114.723 36.0758 114.723 35.9796C114.818 35.8834 115.01 35.691 115.105 35.4986L115.201 35.5948C115.01 35.8834 114.818 36.0758 114.627 36.2682C114.436 36.3644 114.245 36.4606 114.054 36.4606C113.862 36.4606 113.767 36.4606 113.671 36.3644C113.576 36.2682 113.576 36.172 113.576 36.0758C113.576 35.8834 113.576 35.7872 113.671 35.4986L114.245 33.4783H113.767L113.862 33.1897C114.149 33.0935 114.436 32.9011 114.627 32.8049C114.818 32.6125 115.105 32.4201 115.392 32.0353H115.679V31.9391ZM112.333 32.9011L111.759 35.0175C112.237 33.9593 112.62 33.3821 112.811 33.0935C112.906 32.9973 113.098 32.9011 113.289 32.9011C113.384 32.9011 113.48 32.9011 113.576 32.9973C113.671 33.0935 113.671 33.1897 113.671 33.2859C113.671 33.5745 113.576 33.7669 113.48 33.8631C113.384 33.9593 113.289 34.0555 113.193 34.0555C113.098 34.0555 113.002 34.0555 113.002 33.9593C112.906 33.8631 112.906 33.7669 112.906 33.7669C112.906 33.7669 112.906 33.7669 112.811 33.7669H112.715C112.62 33.7669 112.62 33.8631 112.524 33.9593C112.428 34.0555 112.333 34.2479 112.237 34.5365C112.142 34.8251 112.046 35.0175 111.95 35.21C111.855 35.4024 111.759 35.7872 111.664 36.2682H110.707L111.281 33.7669C111.281 33.5745 111.377 33.4783 111.377 33.3821C111.377 33.2859 111.377 33.2859 111.377 33.1897L111.281 33.0935C111.281 33.0935 111.185 33.0935 110.994 33.0935V32.9973L112.142 32.7087H112.333V32.9011ZM109.082 33.0935C108.987 33.0935 108.795 33.0935 108.795 33.1897C108.604 33.3821 108.413 33.7669 108.222 34.3441C108.031 34.9213 107.935 35.4986 107.935 35.8834C107.935 35.9796 107.935 36.0758 108.031 36.172C108.126 36.2682 108.222 36.2682 108.317 36.2682C108.413 36.2682 108.509 36.2682 108.604 36.172C108.7 36.0758 108.891 35.8834 108.987 35.5948C109.178 35.3062 109.273 34.9213 109.369 34.5365C109.465 34.1517 109.56 33.7669 109.56 33.4783C109.56 33.3821 109.56 33.2859 109.465 33.1897C109.178 33.0935 109.082 33.0935 109.082 33.0935ZM109.178 32.9011C109.369 32.9011 109.56 32.9011 109.751 32.9973C109.943 33.0935 110.038 33.1897 110.134 33.3821C110.229 33.5745 110.229 33.7669 110.229 33.9593C110.229 34.3441 110.134 34.7289 109.847 35.21C109.656 35.5948 109.369 35.9796 108.987 36.172C108.604 36.3644 108.222 36.5568 107.839 36.5568C107.457 36.5568 107.266 36.4606 107.075 36.2682C106.883 36.0758 106.788 35.7872 106.788 35.4986C106.788 35.1138 106.883 34.8251 106.979 34.5365C107.075 34.2479 107.266 33.9593 107.553 33.7669C107.744 33.5745 108.031 33.3821 108.317 33.1897C108.604 32.9011 108.891 32.9011 109.178 32.9011ZM103.92 35.9796C104.015 36.0758 104.111 36.172 104.111 36.2682C104.207 36.2682 104.207 36.3644 104.302 36.3644C104.398 36.3644 104.493 36.3644 104.493 36.2682C104.589 36.2682 104.685 36.172 104.78 35.9796C104.876 35.8834 104.971 35.691 105.067 35.4986C105.163 35.3062 105.258 35.0175 105.354 34.8251C105.449 34.5365 105.449 34.3441 105.449 34.0555C105.449 33.8631 105.449 33.7669 105.354 33.6707C105.258 33.5745 105.163 33.5745 105.067 33.5745C104.971 33.5745 104.876 33.5745 104.78 33.6707C104.685 33.7669 104.493 33.8631 104.398 34.0555L103.92 35.9796ZM103.25 33.0935L104.493 32.9011H104.685L104.493 33.4783C104.78 33.1897 104.971 33.0935 105.163 32.9973C105.354 32.9011 105.545 32.9011 105.641 32.9011C105.832 32.9011 106.023 32.9973 106.214 33.1897C106.31 33.3821 106.405 33.5745 106.405 33.8631C106.405 34.6327 106.119 35.21 105.641 35.7872C105.163 36.2682 104.685 36.5568 104.207 36.5568C104.111 36.5568 104.015 36.5568 104.015 36.5568C103.92 36.5568 103.824 36.4606 103.729 36.4606L103.537 37.134C103.442 37.4226 103.442 37.615 103.442 37.7112C103.442 37.8074 103.442 37.8074 103.537 37.9036C103.633 37.9036 103.729 37.9998 103.92 37.9998V38.096H101.912V37.9998C102.103 37.9998 102.199 37.9036 102.294 37.8074C102.39 37.7112 102.486 37.5188 102.581 37.134L103.537 33.9593C103.633 33.7669 103.633 33.5745 103.633 33.4783V33.3821L103.537 33.2859C103.537 33.2859 103.442 33.2859 103.25 33.2859V33.0935ZM100 35.9796C100.096 36.0758 100.191 36.172 100.191 36.2682C100.287 36.2682 100.287 36.3644 100.382 36.3644C100.478 36.3644 100.574 36.3644 100.574 36.2682C100.669 36.2682 100.765 36.172 100.86 35.9796C100.956 35.8834 101.052 35.691 101.147 35.4986C101.243 35.3062 101.338 35.0175 101.434 34.8251C101.53 34.5365 101.53 34.3441 101.53 34.0555C101.53 33.8631 101.53 33.7669 101.434 33.6707C101.338 33.5745 101.243 33.5745 101.147 33.5745C101.052 33.5745 100.956 33.5745 100.86 33.6707C100.765 33.7669 100.574 33.8631 100.478 34.0555L100 35.9796ZM99.4264 33.0935L100.669 32.9011H100.86L100.669 33.4783C100.956 33.1897 101.147 33.0935 101.338 32.9973C101.53 32.9011 101.721 32.9011 101.816 32.9011C102.008 32.9011 102.199 32.9973 102.39 33.1897C102.486 33.3821 102.581 33.5745 102.581 33.8631C102.581 34.6327 102.294 35.21 101.816 35.7872C101.338 36.2682 100.86 36.5568 100.382 36.5568C100.287 36.5568 100.191 36.5568 100.191 36.5568C100.096 36.5568 100 36.4606 99.9044 36.4606L99.7132 37.134C99.6176 37.4226 99.6176 37.615 99.6176 37.7112C99.6176 37.8074 99.6176 37.8074 99.7132 37.9036C99.8088 37.9036 99.9044 37.9998 100.096 37.9998V38.096H98.088V37.9998C98.2792 37.9998 98.3748 37.9036 98.4704 37.8074C98.566 37.7112 98.6616 37.5188 98.7572 37.134L99.7132 33.9593C99.8088 33.7669 99.8088 33.5745 99.8088 33.4783V33.3821L99.7132 33.2859C99.7132 33.2859 99.6176 33.2859 99.4264 33.2859V33.0935ZM96.7495 32.9011L95.9847 35.4986C95.9847 35.5948 95.8891 35.691 95.8891 35.7872C95.8891 35.7872 95.8891 35.7872 95.8891 35.8834C95.8891 35.8834 95.8891 35.8834 95.9847 35.8834C96.0803 35.8834 96.2715 35.7872 96.4627 35.5948C96.7495 35.3062 97.0364 34.8251 97.3232 34.3441L97.7056 33.1897H98.6616L97.8968 35.691C97.8012 35.8834 97.8012 35.9796 97.8012 36.0758C97.8012 36.0758 97.8012 36.0758 97.8012 36.172C97.8012 36.172 97.8012 36.172 97.8968 36.172H97.9924C98.088 36.0758 98.1836 35.9796 98.3748 35.691L98.4704 35.7872C98.088 36.4606 97.7056 36.7492 97.3232 36.7492C97.132 36.7492 97.0363 36.7492 96.9407 36.653C96.8451 36.5568 96.8451 36.4606 96.8451 36.3644C96.8451 36.2682 96.8451 36.0758 96.9407 35.8834L97.1319 35.21C96.8451 35.691 96.5583 35.9796 96.4627 36.172C96.2715 36.4606 96.0803 36.5568 95.8891 36.653C95.6979 36.7492 95.6023 36.7492 95.4111 36.7492C95.3155 36.7492 95.1243 36.653 95.0287 36.5568C94.9331 36.4606 94.8375 36.3644 94.8375 36.172C94.8375 36.0758 94.8375 35.8834 94.9331 35.691L95.3155 34.1517C95.4111 33.8631 95.4111 33.7669 95.4111 33.6707V33.5745L95.3155 33.4783C95.3155 33.4783 95.2199 33.4783 95.0287 33.4783V33.3821L96.2715 33.1897H96.7495V32.9011ZM94.9331 31.1694L94.5507 32.9011H94.4551C94.4551 32.6125 94.3595 32.4201 94.2639 32.2277C94.1683 32.0353 93.9771 31.8429 93.8815 31.6505C93.6903 31.5543 93.4991 31.4581 93.3079 31.4581C93.1167 31.4581 92.9254 31.5543 92.8298 31.6505C92.6386 31.8429 92.6386 31.9391 92.6386 32.1315C92.6386 32.3239 92.7342 32.5163 92.8298 32.7087C92.9254 32.9011 93.2123 33.1897 93.5947 33.4783C93.8815 33.7669 94.0727 34.0555 94.1683 34.2479C94.2639 34.4403 94.3595 34.7289 94.3595 34.9213C94.3595 35.21 94.2639 35.4024 94.1683 35.691C93.9771 35.8834 93.7859 36.0758 93.4991 36.2682C93.2123 36.3644 92.9255 36.4606 92.543 36.4606C92.3518 36.4606 92.065 36.4606 91.6826 36.3644C91.3958 36.2682 91.109 36.2682 91.0134 36.2682C90.9178 36.2682 90.8222 36.2682 90.8222 36.2682C90.7266 36.2682 90.631 36.3644 90.5354 36.4606H90.3442L90.8222 34.5365C90.8222 34.9213 90.9178 35.21 91.0134 35.4024C91.109 35.691 91.3002 35.7872 91.4914 35.9796C91.6826 36.0758 91.8738 36.172 92.1606 36.172C92.4474 36.172 92.6386 36.0758 92.8298 35.8834C93.021 35.691 93.1167 35.4986 93.1167 35.3062C93.1167 35.1137 93.1167 34.9213 93.0211 34.7289C92.9255 34.5365 92.7342 34.3441 92.3518 33.9593C92.065 33.6707 91.7782 33.2859 91.6826 33.0935C91.587 32.9011 91.587 32.7087 91.587 32.5163C91.587 32.1315 91.7782 31.8429 92.065 31.5543C92.3518 31.2656 92.7342 31.1694 93.2123 31.1694C93.4035 31.1694 93.6903 31.2656 94.0727 31.3618C94.2639 31.4581 94.4551 31.4581 94.5507 31.4581C94.6463 31.4581 94.6463 31.4581 94.7419 31.4581C94.8375 31.4581 94.8375 31.3619 94.9331 31.2656V31.1694ZM86.3289 34.7289C86.5201 34.7289 86.7113 34.6327 86.8069 34.6327C86.9025 34.5365 87.0937 34.4403 87.1893 34.3441C87.2849 34.2479 87.3805 34.0555 87.4761 33.8631C87.5717 33.6707 87.5717 33.4783 87.5717 33.2859C87.5717 33.1897 87.5717 33.1897 87.4761 33.0935C87.4761 33.0935 87.3805 32.9973 87.2849 32.9973C87.1893 32.9973 86.9981 33.0935 86.9025 33.2859C86.7113 33.6707 86.5201 34.1517 86.3289 34.7289ZM86.3289 34.9213C86.3289 35.1137 86.3289 35.21 86.3289 35.3062C86.3289 35.4986 86.4245 35.691 86.5201 35.7872C86.6157 35.8834 86.8069 35.9796 86.9981 35.9796C87.1893 35.9796 87.3805 35.9796 87.5717 35.8834C87.7629 35.7872 87.9541 35.691 88.1453 35.4024L88.2409 35.4986C87.9541 35.8834 87.6673 36.0758 87.3805 36.2682C87.0937 36.4606 86.8069 36.4606 86.5201 36.4606C86.1377 36.4606 85.8509 36.3644 85.6597 36.172C85.4685 35.9796 85.3729 35.691 85.3729 35.4986C85.3729 35.1138 85.4685 34.6327 85.7553 34.2479C85.9465 33.8631 86.3289 33.4783 86.7113 33.2859C87.0937 32.9973 87.5717 32.9011 87.9541 32.9011C88.1453 32.9011 88.3365 32.9973 88.4321 33.0935C88.5277 33.1897 88.6233 33.2859 88.6233 33.4783C88.6233 33.6707 88.5277 33.8631 88.4321 34.0555C88.2409 34.2479 88.1453 34.4403 87.8585 34.6327C87.6673 34.8251 87.3805 34.9213 87.0937 34.9213C86.8069 34.9213 86.6157 34.9213 86.3289 34.9213ZM84.608 35.4986L84.7036 35.5948C84.4168 35.8834 84.2256 36.0758 83.9388 36.2682C83.652 36.4606 83.2696 36.5568 82.9828 36.5568C82.7916 36.5568 82.6004 36.4606 82.4092 36.3644C82.218 36.2682 82.1224 36.172 82.0268 35.9796C81.9312 35.7872 81.9312 35.5948 81.9312 35.4024C81.9312 35.0175 82.0268 34.5365 82.3136 34.1517C82.5048 33.7669 82.7916 33.4783 83.174 33.1897C83.5564 32.9973 83.9388 32.8049 84.2256 32.8049C84.5124 32.8049 84.7037 32.9011 84.8949 32.9973C85.0861 33.0935 85.0861 33.2859 85.0861 33.4783C85.0861 33.6707 84.9905 33.7669 84.8949 33.8631C84.7993 33.9593 84.7037 34.0555 84.5124 34.0555C84.4168 34.0555 84.3212 34.0555 84.2256 33.9593C84.13 33.9593 84.13 33.8631 84.13 33.7669C84.13 33.6707 84.2256 33.4783 84.3212 33.3821C84.4168 33.2859 84.4168 33.2859 84.4168 33.1897C84.4168 33.1897 84.4168 33.0935 84.3212 33.0935C84.2256 33.0935 84.2256 32.9973 84.13 32.9973C83.9388 32.9973 83.7476 33.0935 83.5564 33.2859C83.2696 33.4783 83.0784 33.7669 82.9828 34.1517C82.8872 34.5365 82.7916 34.8251 82.7916 35.1137C82.7916 35.4024 82.8872 35.5948 82.9828 35.691C83.0784 35.8834 83.2696 35.8834 83.4608 35.8834C83.652 35.8834 83.7476 35.8834 83.9388 35.7872C84.2256 35.7872 84.4168 35.5948 84.608 35.4986ZM81.4532 32.9011L80.6884 35.5948C80.6884 35.7872 80.5928 35.8834 80.5928 35.8834V35.9796C80.5928 35.9796 80.5928 35.9796 80.6884 35.9796C80.6884 35.9796 80.784 35.9796 80.784 35.8834C80.8796 35.7872 81.0708 35.5948 81.1664 35.4024L81.262 35.4986C80.8796 36.172 80.4971 36.4606 80.0191 36.4606C79.8279 36.4606 79.7323 36.4606 79.6367 36.3644C79.5411 36.2682 79.4455 36.172 79.4455 35.9796C79.4455 35.8834 79.4455 35.7872 79.5411 35.5948L80.0191 33.7669C80.1147 33.5745 80.1147 33.4783 80.1147 33.3821C80.1147 33.2859 80.1147 33.2859 80.0191 33.1897C80.0191 33.1897 79.9235 33.0935 79.8279 33.0935H79.7323L79.8279 32.9011L81.0708 32.7087H81.4532V32.9011ZM81.262 31.1694C81.4532 31.1694 81.5488 31.2656 81.6444 31.3618C81.74 31.4581 81.8356 31.5543 81.8356 31.7467C81.8356 31.9391 81.74 32.0353 81.6444 32.1315C81.5488 32.2277 81.4532 32.3239 81.262 32.3239C81.0708 32.3239 80.9752 32.2277 80.8796 32.1315C80.784 32.0353 80.6884 31.9391 80.6884 31.7467C80.6884 31.5543 80.784 31.4581 80.8796 31.3618C80.9752 31.1694 81.0708 31.1694 81.262 31.1694ZM77.1511 36.4606H77.0555C77.0555 36.2682 77.0555 36.0758 77.0555 35.9796C77.0555 35.691 77.0555 35.3062 76.9599 34.7289C76.9599 34.1517 76.8643 33.8631 76.7687 33.6707C76.7687 33.5745 76.6731 33.4783 76.5775 33.3821C76.5775 33.3821 76.4819 33.2859 76.3863 33.2859C76.3863 33.2859 76.2906 33.2859 76.195 33.2859V33.1897L77.4379 32.9011C77.7247 33.5745 77.8203 34.4403 77.8203 35.4986C78.2027 35.1138 78.4895 34.8251 78.5851 34.6327C78.6807 34.4403 78.7763 34.2479 78.7763 34.0555C78.7763 33.9593 78.7763 33.8631 78.6807 33.6707C78.5851 33.5745 78.5851 33.4783 78.4895 33.3821C78.4895 33.2859 78.4895 33.2859 78.4895 33.1897C78.4895 33.0935 78.4895 32.9011 78.5851 32.9011C78.6807 32.8049 78.7763 32.8049 78.8719 32.8049C78.9675 32.8049 79.1587 32.8049 79.1587 32.9011C79.2543 32.9973 79.3499 33.1897 79.3499 33.3821C79.3499 33.5745 79.3499 33.7669 79.2543 33.8631C79.1587 34.0555 79.0631 34.2479 78.9675 34.4403C78.7763 34.6327 78.6807 34.9213 78.4895 35.0175C78.2983 35.4986 77.8203 35.9796 77.1511 36.4606ZM74.9522 32.9011L74.3786 35.0175C74.8566 33.9593 75.239 33.3821 75.4302 33.0935C75.5258 32.9973 75.717 32.9011 75.9082 32.9011C76.0038 32.9011 76.0994 32.9011 76.195 32.9973C76.2906 33.0935 76.2907 33.1897 76.2907 33.2859C76.2907 33.5745 76.195 33.7669 76.0994 33.8631C76.0038 33.9593 75.9082 34.0555 75.8126 34.0555C75.717 34.0555 75.6214 34.0555 75.6214 33.9593C75.5258 33.8631 75.5258 33.7669 75.5258 33.7669C75.5258 33.7669 75.5258 33.7669 75.4302 33.7669H75.3346C75.239 33.7669 75.239 33.8631 75.1434 33.9593C75.0478 34.0555 74.9522 34.2479 74.8566 34.5365C74.761 34.8251 74.6654 35.0175 74.5698 35.21C74.4742 35.4024 74.3786 35.7872 74.283 36.2682H73.327L73.9006 33.7669C73.9006 33.5745 73.9962 33.4783 73.9962 33.3821C73.9962 33.2859 73.9962 33.2859 73.9962 33.1897L73.9006 33.0935C73.9006 33.0935 73.805 33.0935 73.6138 33.0935V32.9973L74.761 32.7087H74.9522V32.9011ZM70.9369 34.7289C71.1281 34.7289 71.3193 34.6327 71.4149 34.6327C71.5105 34.5365 71.7017 34.4403 71.7973 34.3441C71.8929 34.2479 71.9885 34.0555 72.0841 33.8631C72.1798 33.6707 72.1797 33.4783 72.1797 33.2859C72.1797 33.1897 72.1798 33.1897 72.0841 33.0935C72.0841 33.0935 71.9885 32.9973 71.8929 32.9973C71.7973 32.9973 71.6061 33.0935 71.5105 33.2859C71.3193 33.6707 71.1281 34.1517 70.9369 34.7289ZM70.9369 34.9213C70.9369 35.1137 70.9369 35.21 70.9369 35.3062C70.9369 35.4986 71.0325 35.691 71.1281 35.7872C71.2237 35.8834 71.4149 35.9796 71.6061 35.9796C71.7973 35.9796 71.9885 35.9796 72.1797 35.8834C72.371 35.7872 72.5622 35.691 72.7534 35.4024L72.849 35.4986C72.5622 35.8834 72.2754 36.0758 71.9885 36.2682C71.7017 36.4606 71.4149 36.4606 71.1281 36.4606C70.7457 36.4606 70.4589 36.3644 70.2677 36.172C70.0765 35.9796 69.9809 35.691 69.9809 35.4986C69.9809 35.1138 70.0765 34.6327 70.3633 34.2479C70.5545 33.8631 70.9369 33.4783 71.3193 33.2859C71.7017 32.9973 72.1798 32.9011 72.5622 32.9011C72.7534 32.9011 72.9446 32.9973 73.0402 33.0935C73.1358 33.1897 73.2314 33.2859 73.2314 33.4783C73.2314 33.6707 73.1358 33.8631 73.0402 34.0555C72.849 34.2479 72.7534 34.4403 72.4666 34.6327C72.2754 34.8251 71.9885 34.9213 71.7017 34.9213C71.5105 34.9213 71.2237 34.9213 70.9369 34.9213ZM69.8853 31.1694L69.5029 32.9011H69.4073C69.4073 32.6125 69.3117 32.4201 69.2161 32.2277C69.1205 32.0353 68.9293 31.8429 68.8337 31.6505C68.6425 31.5543 68.4513 31.4581 68.2601 31.4581C68.0689 31.4581 67.8776 31.5543 67.782 31.6505C67.5908 31.8429 67.5908 31.9391 67.5908 32.1315C67.5908 32.3239 67.6864 32.5163 67.782 32.7087C67.8776 32.9011 68.1644 33.1897 68.5469 33.4783C68.8337 33.7669 69.0249 34.0555 69.1205 34.2479C69.2161 34.4403 69.3117 34.7289 69.3117 34.9213C69.3117 35.21 69.2161 35.4024 69.1205 35.691C68.9293 35.8834 68.7381 36.0758 68.4513 36.2682C68.1645 36.3644 67.8776 36.4606 67.4952 36.4606C67.304 36.4606 67.0172 36.4606 66.6348 36.3644C66.348 36.2682 66.0612 36.2682 65.9656 36.2682C65.87 36.2682 65.7744 36.2682 65.7744 36.2682C65.6788 36.2682 65.5832 36.3644 65.4876 36.4606H65.2964L65.7744 34.5365H65.87C65.87 34.9213 65.9656 35.21 66.0612 35.4024C66.1568 35.691 66.348 35.7872 66.5392 35.9796C66.7304 36.0758 66.9216 36.172 67.2084 36.172C67.4952 36.172 67.6864 36.0758 67.8776 35.8834C68.0689 35.691 68.1645 35.4986 68.1645 35.3062C68.1645 35.1137 68.1644 34.9213 68.0688 34.7289C67.9732 34.5365 67.782 34.3441 67.3996 33.9593C67.1128 33.6707 66.826 33.2859 66.7304 33.0935C66.6348 32.9011 66.6348 32.7087 66.6348 32.5163C66.6348 32.1315 66.826 31.8429 67.1128 31.5543C67.3996 31.2656 67.782 31.1694 68.2601 31.1694C68.4513 31.1694 68.7381 31.2656 69.1205 31.3618C69.3117 31.4581 69.5029 31.4581 69.5985 31.4581C69.6941 31.4581 69.6941 31.4581 69.7897 31.4581C69.8853 31.4581 69.8853 31.3619 69.9809 31.2656H69.8853V31.1694Z" fill="#1A1A18"/>
    </g>
    <defs>
        <clipPath id="clip0_601_472">
            <rect width="150" height="38" fill="white"/>
        </clipPath>
    </defs>
</svg>
