<svg width="26" height="26" viewBox="0 0 26 26" fill="none" xmlns="http://www.w3.org/2000/svg">
<path d="M25.2742 6.60156C25.0339 5.26141 23.8887 4.28546 22.5597 3.98077C20.571 3.55469 16.8903 3.25 12.9081 3.25C8.92822 3.25 5.18869 3.55469 3.19757 3.98077C1.87094 4.28546 0.723401 5.19952 0.483052 6.60156C0.240348 8.125 0 10.2578 0 13C0 15.7422 0.240348 17.875 0.541961 19.3984C0.784665 20.7386 1.92985 21.7145 3.25648 22.0192C5.36777 22.4453 8.98713 22.75 12.9694 22.75C16.9516 22.75 20.571 22.4453 22.6823 22.0192C24.0089 21.7145 25.1541 20.8005 25.3968 19.3984C25.6371 17.875 25.9387 15.6803 26 13C25.8775 10.2578 25.5759 8.125 25.2742 6.60156ZM9.65162 17.2656V8.73438L17.0105 13L9.65162 17.2656Z" fill="white"/>
</svg>
