<svg width="18" height="18" viewBox="0 0 18 18" fill="none" xmlns="http://www.w3.org/2000/svg">
<g clip-path="url(#clip0_605_716)">
<path d="M9.00002 0.720215C4.4345 0.720215 0.720024 4.43469 0.720024 9.00021C0.720024 10.4258 1.0883 11.8277 1.7867 13.0646L0.733344 16.823C0.698784 16.9465 0.732264 17.079 0.821544 17.1708C0.890304 17.2417 0.983904 17.2802 1.08002 17.2802C1.10882 17.2802 1.13798 17.2766 1.16642 17.2698L5.08898 16.2981C6.2867 16.9411 7.63562 17.2802 9.00002 17.2802C13.5655 17.2802 17.28 13.5657 17.28 9.00021C17.28 4.43469 13.5655 0.720215 9.00002 0.720215ZM13.1652 11.922C12.9881 12.4123 12.1385 12.8598 11.7303 12.9199C11.3638 12.9735 10.9001 12.9966 10.3911 12.8367C10.0825 12.7395 9.68654 12.6107 9.1793 12.3943C7.04702 11.4849 5.65454 9.36489 5.54798 9.22485C5.44178 9.08481 4.68002 8.08689 4.68002 7.05405C4.68002 6.02121 5.22902 5.51325 5.42414 5.30301C5.61926 5.09277 5.8493 5.04021 5.99114 5.04021C6.13298 5.04021 6.27446 5.04201 6.39866 5.04777C6.52934 5.05425 6.70466 4.99845 6.8771 5.40813C7.05422 5.82861 7.47938 6.86145 7.53194 6.96693C7.58522 7.07205 7.6205 7.19481 7.54994 7.33485C7.47938 7.47489 7.4441 7.56237 7.33754 7.68513C7.23098 7.80789 7.11434 7.95873 7.01858 8.05305C6.91202 8.15781 6.8015 8.27121 6.92534 8.48145C7.04918 8.69169 7.47578 9.37893 8.10794 9.93549C8.91974 10.6505 9.60482 10.8722 9.81722 10.9773C10.0296 11.0825 10.1538 11.0648 10.2777 10.9248C10.4015 10.7844 10.809 10.3117 10.9505 10.1018C11.092 9.89193 11.2338 9.92649 11.4289 9.99669C11.6241 10.0665 12.6691 10.5741 12.8815 10.6793C13.0939 10.7844 13.2358 10.8369 13.2891 10.9244C13.3423 11.0115 13.3423 11.432 13.1652 11.922Z" fill="#FEFEFE"/>
</g>
<defs>
<clipPath id="clip0_605_716">
<rect width="18" height="18" fill="white"/>
</clipPath>
</defs>
</svg>
