<svg width="20" height="19" viewBox="0 0 20 19" fill="none" xmlns="http://www.w3.org/2000/svg">
<path d="M8.91299 0.963504C9.21033 0.0379957 10.5198 0.0379954 10.8171 0.963503L12.3059 5.59766C12.4388 6.01129 12.8236 6.2918 13.258 6.2918H18.0997C19.0657 6.2918 19.4703 7.52564 18.6918 8.09763L14.7554 10.9901C14.4089 11.2448 14.264 11.6924 14.3955 12.1018L15.8945 16.7676C16.1911 17.6909 15.1318 18.4536 14.3503 17.8793L10.4572 15.0187C10.1049 14.7598 9.62525 14.7598 9.27293 15.0187L5.37987 17.8793C4.59838 18.4536 3.53904 17.6909 3.83566 16.7676L5.33463 12.1018C5.46616 11.6924 5.32122 11.2447 4.97469 10.9901L1.03829 8.09764C0.259868 7.52564 0.664446 6.2918 1.63043 6.2918H6.47212C6.90657 6.2918 7.29131 6.01129 7.42419 5.59766L8.91299 0.963504Z" fill="black"/>
</svg>
