<svg width="20" height="19" viewBox="0 0 20 19" fill="none" xmlns="http://www.w3.org/2000/svg">
<g clip-path="url(#clip0_150_109)">
<path d="M8.91339 0.96351C9.21073 0.0380018 10.5202 0.0380015 10.8175 0.963509L12.3063 5.59767C12.4392 6.0113 12.824 6.29181 13.2584 6.29181H18.1001C19.0661 6.29181 19.4707 7.52565 18.6922 8.09764L14.7558 10.9901C14.4093 11.2448 14.2644 11.6924 14.3959 12.1018L15.8949 16.7676C16.1915 17.6909 15.1322 18.4536 14.3507 17.8793L10.4576 15.0187C10.1053 14.7598 9.62565 14.7598 9.27333 15.0187L5.38027 17.8793C4.59878 18.4536 3.53944 17.6909 3.83606 16.7676L5.33503 12.1018C5.46656 11.6924 5.32162 11.2447 4.97509 10.9901L1.03869 8.09765C0.260272 7.52565 0.66485 6.29181 1.63083 6.29181H6.47252C6.90697 6.29181 7.29171 6.0113 7.42459 5.59767L8.91339 0.96351Z" fill="#ED781A"/>
</g>
<defs>
<clipPath id="clip0_150_109">
<rect width="20" height="19" fill="white"/>
</clipPath>
</defs>
</svg>
