<svg width="21" height="21" viewBox="0 0 21 21" fill="none" xmlns="http://www.w3.org/2000/svg">
<path d="M13.1863 13.9782L12.6917 14.4729C12.6917 14.4729 11.5539 15.6601 8.48687 12.3952C5.41985 9.13031 6.55762 7.94307 6.55762 7.94307L6.85443 7.64626C7.59645 6.85477 7.64592 5.61807 7.00283 4.72765L5.66719 2.84786C4.8757 1.71009 3.34219 1.56169 2.4023 2.55105L0.769853 4.28243C0.324641 4.77711 0.027832 5.37073 0.027832 6.06329C0.126768 7.79467 0.86879 11.6037 5.02411 16.0064C9.47624 20.6564 13.6316 20.8542 15.3135 20.7058C15.8576 20.6564 16.3028 20.3596 16.6986 19.9638L18.1826 18.3808C19.172 17.342 18.9246 15.5117 17.6385 14.7697L15.6597 13.6319C14.8683 13.1372 13.8294 13.2856 13.1863 13.9782Z" fill="black"/>
<path d="M10.8121 0.720618C10.8616 0.275405 11.3068 0.0280629 11.7026 0.077531C11.752 0.077531 11.8015 0.077534 11.851 0.127002C11.9499 0.127002 12.0488 0.176469 12.1973 0.225937C12.4941 0.324873 12.9393 0.473277 13.434 0.720618C14.4728 1.2153 15.8579 2.00679 17.2925 3.44136C18.727 4.87594 19.568 6.26104 20.0132 7.29987C20.2605 7.79456 20.409 8.23977 20.5079 8.53658C20.5574 8.68498 20.6068 8.83338 20.6068 8.88285C20.6068 8.93232 20.6068 8.98179 20.6068 8.98179V9.03126C20.6563 9.47647 20.409 9.87221 19.9637 9.97115C19.5185 10.0206 19.1228 9.77328 19.0733 9.32806V9.2786C19.0733 9.22913 19.0238 9.13019 19.0238 9.03126C18.9744 8.78392 18.826 8.43764 18.6281 7.99243C18.2324 7.102 17.4903 5.8653 16.2042 4.57913C14.918 3.29296 13.6813 2.55093 12.7909 2.15519C12.3457 1.95732 11.9994 1.80892 11.752 1.75945C11.6531 1.70998 11.4552 1.70998 11.4058 1.66051C11.01 1.56157 10.7132 1.16583 10.8121 0.720618Z" fill="black"/>
<path fill-rule="evenodd" clip-rule="evenodd" d="M11.0096 4.33208C11.1086 3.93634 11.5538 3.68899 11.999 3.78793L11.8011 4.52995C11.999 3.78793 11.999 3.78793 11.999 3.78793H12.0485C12.0979 3.78793 12.1474 3.8374 12.2463 3.8374C12.3947 3.88687 12.5926 3.9858 12.84 4.1342C13.3346 4.43101 14.0272 4.9257 14.8682 5.76665C15.7091 6.60761 16.2038 7.30017 16.5006 7.79485C16.649 8.04219 16.7479 8.24006 16.7974 8.38846C16.8469 8.4874 16.8469 8.53686 16.8469 8.58633V8.6358C16.8469 8.6358 16.8469 8.6358 16.1049 8.83367L16.8469 8.6358C16.9458 9.03155 16.7479 9.47676 16.3027 9.62516C15.907 9.7241 15.4618 9.52623 15.3628 9.08101C15.3628 9.08101 15.3628 9.03155 15.3134 8.98208C15.2639 8.88314 15.2144 8.73474 15.066 8.53687C14.8187 8.14112 14.4229 7.54751 13.6809 6.80549C12.9389 6.06346 12.3453 5.66772 11.9495 5.42038C11.7517 5.32144 11.6033 5.22251 11.5043 5.17304C11.4549 5.17304 11.4054 5.12357 11.4054 5.12357C11.158 5.17303 10.9107 4.77729 11.0096 4.33208Z" fill="black"/>
</svg>
