<svg width="24" height="24" viewBox="0 0 24 24" fill="none" xmlns="http://www.w3.org/2000/svg">
<mask id="mask0_614_2529" style="mask-type:alpha" maskUnits="userSpaceOnUse" x="0" y="0" width="24" height="24">
<rect width="24" height="24" fill="#1C1B1F"/>
</mask>
<g mask="url(#mask0_614_2529)">
<path d="M9.91326 12.2381V9.52381H6.93928V7.71429H9.91326V5H11.8959V7.71429H14.8699V9.52381H11.8959V12.2381H9.91326ZM5.94796 24C5.40273 24 4.93598 23.8228 4.54771 23.4685C4.15944 23.1141 3.9653 22.6881 3.9653 22.1905C3.9653 21.6929 4.15944 21.2669 4.54771 20.9125C4.93598 20.5581 5.40273 20.381 5.94796 20.381C6.49319 20.381 6.95993 20.5581 7.3482 20.9125C7.73647 21.2669 7.93061 21.6929 7.93061 22.1905C7.93061 22.6881 7.73647 23.1141 7.3482 23.4685C6.95993 23.8228 6.49319 24 5.94796 24ZM15.8612 24C15.316 24 14.8492 23.8228 14.461 23.4685C14.0727 23.1141 13.8786 22.6881 13.8786 22.1905C13.8786 21.6929 14.0727 21.2669 14.461 20.9125C14.8492 20.5581 15.316 20.381 15.8612 20.381C16.4064 20.381 16.8732 20.5581 17.2615 20.9125C17.6497 21.2669 17.8439 21.6929 17.8439 22.1905C17.8439 22.6881 17.6497 23.1141 17.2615 23.4685C16.8732 23.8228 16.4064 24 15.8612 24ZM5.94796 19.4762C5.20446 19.4762 4.63445 19.1784 4.23792 18.5827C3.84139 17.9871 3.83313 17.3952 4.21314 16.8071L5.55142 14.5905L1.98265 7.71429H0V5.90476H3.24659L7.45973 14.0476H14.4238L18.2652 7.71429L20 8.57381L16.1586 14.9071C15.9769 15.2087 15.7373 15.4425 15.4399 15.6083C15.1425 15.7742 14.8038 15.8571 14.4238 15.8571H7.03841L5.94796 17.6667H17.8439V19.4762H5.94796Z" fill="#1C1B1F"/>
</g>
</svg>
