<svg width="17" height="23" viewBox="0 0 17 23" fill="none" xmlns="http://www.w3.org/2000/svg">
<path d="M8.36726 0.335449C4.16247 0.335449 0.699707 3.74875 0.699707 8.003C0.699707 12.0594 7.62524 21.5573 7.92205 21.953L8.21886 22.3487C8.26832 22.3982 8.31779 22.3982 8.36726 22.3982C8.41673 22.3982 8.4662 22.3487 8.51566 22.3487L8.81247 21.953C9.10928 21.5573 16.0348 12.0594 16.0348 8.003C16.0348 3.74875 12.572 0.335449 8.36726 0.335449ZM8.36726 5.23279C9.90077 5.23279 11.088 6.46949 11.088 7.95354C11.088 9.48705 9.8513 10.6743 8.36726 10.6743C6.83375 10.6743 5.64652 9.43758 5.64652 7.95354C5.64652 6.46949 6.83375 5.23279 8.36726 5.23279Z" fill="#010101"/>
</svg>
